# xmcd CD database file
#
# Track frame offsets:
#	150
#	16889
#	30109
#	42935
#	50170
#	70208
#	90313
#	109836
#	121661
#	141070
#	156496
#	167312
#	185452
#	224847
#	249632
#	268332
#	285637
#	301823
#
# Disc length: 4260 seconds
#
# Revision: 0
# Processed by: cddbd v1.5.2PL0 Copyright (c) Steve Scherf et al.
# Submitted via: CDex 1.51
#
DISCID=fa10a212
DTITLE=Joss Stone - Duets
DYEAR=1900
DGENRE=Blues
TTITLE0=Stir it up - (feat. Patty Labelle)
TTITLE1=God Only Knows
TTITLE2=Tell Me Something Good - (feat. John Legend)
TTITLE3=I've got to use my Imagination - (feat. Gladys Knight)
TTITLE4=Try a little Tenderness (feat. Donna Summer)
TTITLE5=Under Pressure
TTITLE6=Alfie
TTITLE7=Lonely Without You (This Christmas) - (feat. Mick Jagger)
TTITLE8=Wicked Time - (feat. Nadirah)
TTITLE9=Love Sneaking' up on you - (feat. Sting)
TTITLE10=I Don't want to do Wrong - (feat. Gladys Knight)
TTITLE11=Treat me Right (I'm yours for life)
TTITLE12=When Love comes to Town - (feat. Johnny Lang)
TTITLE13=Calling it Christmas (feat. Elton John)
TTITLE14=Erica - (feat. Dead Celebrity Status)
TTITLE15=Cry Baby Cry - (feat. Sean Paul)
TTITLE16=One Way or Another - (feat. Blondie)
TTITLE17=What ever Happened to the Heroes
EXTD=
EXTT0=
EXTT1=
EXTT2=
EXTT3=
EXTT4=
EXTT5=
EXTT6=
EXTT7=
EXTT8=
EXTT9=
EXTT10=
EXTT11=
EXTT12=
EXTT13=
EXTT14=
EXTT15=
EXTT16=
EXTT17=
PLAYORDER=
